# ProBuilder 4.2.3
# https://unity3d.com/unity/features/worldbuilding/probuilder
# 12/07/2020 15:59:11

mtllib ./BallBonus.mtl
o BallBonus

g Arch
v -2.5 -2.5 -0.0999999
v -2.457224 -1.847369 -0.0999999
v -2.5 -2.5 0.1000001
v -2.457224 -1.847369 0.1000001
v -0.4743347 -2.108421 -0.0999999
v -0.5 -2.5 -0.0999999
v -0.4743347 -2.108421 0.1000001
v -0.5 -2.5 0.1000001
v -2.329629 -1.205905 -0.0999999
v -2.329629 -1.205905 0.1000001
v -0.3977776 -1.723543 -0.0999999
v -0.3977776 -1.723543 0.1000001
v -2.119398 -0.5865827 -0.0999999
v -2.119398 -0.5865827 0.1000001
v -0.2716384 -1.35195 -0.0999999
v -0.2716384 -1.35195 0.1000001
v -1.830127 0 -0.0999999
v -1.830127 0 0.1000001
v -0.09807611 -1 -0.0999999
v -0.09807611 -1 0.1000001
v -1.466767 0.543807 -0.0999999
v -1.466767 0.543807 0.1000001
v 0.11994 -0.6737157 -0.0999999
v 0.11994 -0.6737157 0.1000001
v -1.035534 1.035534 -0.0999999
v -1.035534 1.035534 0.1000001
v 0.3786798 -0.3786798 -0.0999999
v 0.3786798 -0.3786798 0.1000001
v -0.543807 1.466767 -0.0999999
v -0.543807 1.466767 0.1000001
v 0.6737156 -0.11994 -0.0999999
v 0.6737156 -0.11994 0.1000001
v 2.384186E-07 1.830127 -0.0999999
v 2.384186E-07 1.830127 0.1000001
v 1 0.09807634 -0.0999999
v 1 0.09807634 0.1000001
v 0.5865829 2.119398 -0.0999999
v 0.5865829 2.119398 0.1000001
v 1.35195 0.2716384 -0.0999999
v 1.35195 0.2716384 0.1000001
v 1.205904 2.329629 -0.0999999
v 1.205904 2.329629 0.1000001
v 1.723543 0.3977776 -0.0999999
v 1.723543 0.3977776 0.1000001
v 1.847369 2.457224 -0.0999999
v 1.847369 2.457224 0.1000001
v 2.108421 0.4743345 -0.0999999
v 2.108421 0.4743345 0.1000001
v 2.5 2.5 -0.0999999
v 2.5 2.5 0.1000001
v 2.5 0.5 -0.0999999
v 2.5 0.5 0.1000001

vt -0.0999999 -2.658155
vt -0.0999999 -2.004123
vt 0.1000001 -2.658155
vt 0.1000001 -2.004123
vt 0.0999999 -2.13493
vt 0.0999999 -2.527349
vt -0.1000001 -2.13493
vt -0.1000001 -2.527349
vt -2.5 0.1000001
vt -0.5 0.1000001
vt -2.5 -0.0999999
vt -0.5 -0.0999999
vt -0.0999999 -2.291254
vt -0.0999999 -1.637222
vt 0.1000001 -2.291254
vt 0.1000001 -1.637222
vt 0.0999999 -1.768028
vt 0.0999999 -2.160447
vt -0.1000001 -1.768028
vt -0.1000001 -2.160447
vt -0.0999999 -1.890742
vt -0.0999999 -1.23671
vt 0.1000001 -1.890742
vt 0.1000001 -1.23671
vt 0.0999999 -1.367517
vt 0.0999999 -1.759936
vt -0.1000001 -1.367517
vt -0.1000001 -1.759936
vt -0.0999999 -1.463476
vt -0.0999999 -0.8094451
vt 0.1000001 -1.463476
vt 0.1000001 -0.8094451
vt 0.0999999 -0.9402508
vt 0.0999999 -1.332669
vt -0.1000001 -0.9402508
vt -0.1000001 -1.332669
vt -0.0999999 -1.016764
vt -0.0999999 -0.3627327
vt 0.1000001 -1.016764
vt 0.1000001 -0.3627327
vt 0.0999999 -0.4935391
vt 0.0999999 -0.8859578
vt -0.1000001 -0.4935391
vt -0.1000001 -0.8859578
vt -0.0999999 -0.5582503
vt -0.0999999 0.09578099
vt 0.1000001 -0.5582503
vt 0.1000001 0.09578099
vt 0.0999999 -0.0350255
vt 0.0999999 -0.4274442
vt -0.1000001 -0.0350255
vt -0.1000001 -0.4274442
vt 0.09578099 -0.0999999
vt -0.5582503 -0.0999999
vt 0.09578099 0.1000001
vt -0.5582503 0.1000001
vt 0.427444 -0.0999999
vt 0.03502536 -0.0999999
vt 0.427444 0.1000001
vt 0.03502536 0.1000001
vt -0.3627333 -0.0999999
vt -1.016765 -0.0999999
vt -0.3627333 0.1000001
vt -1.016765 0.1000001
vt 0.8859578 -0.0999999
vt 0.4935388 -0.0999999
vt 0.8859578 0.1000001
vt 0.4935388 0.1000001
vt -0.8094445 -0.0999999
vt -1.463476 -0.0999999
vt -0.8094445 0.1000001
vt -1.463476 0.1000001
vt 1.33267 -0.0999999
vt 0.9402511 -0.0999999
vt 1.33267 0.1000001
vt 0.9402511 0.1000001
vt -1.236711 -0.0999999
vt -1.890742 -0.0999999
vt -1.236711 0.1000001
vt -1.890742 0.1000001
vt 1.759936 -0.0999999
vt 1.367517 -0.0999999
vt 1.759936 0.1000001
vt 1.367517 0.1000001
vt -1.637221 -0.0999999
vt -2.291252 -0.0999999
vt -1.637221 0.1000001
vt -2.291252 0.1000001
vt 2.160447 -0.0999999
vt 1.768028 -0.0999999
vt 2.160447 0.1000001
vt 1.768028 0.1000001
vt -2.004125 -0.0999999
vt -2.658157 -0.0999999
vt -2.004125 0.1000001
vt -2.658157 0.1000001
vt 2.527349 -0.0999999
vt 2.13493 -0.0999999
vt 2.527349 0.1000001
vt 2.13493 0.1000001
vt -0.1000001 0.5
vt -0.1000001 2.5
vt 0.0999999 0.5
vt 0.0999999 2.5
vt -2.5 -2.5
vt -2.457224 -1.847369
vt -0.5 -2.5
vt -0.4743347 -2.108421
vt 2.457224 -1.847369
vt 2.5 -2.5
vt 0.4743347 -2.108421
vt 0.5 -2.5
vt -2.329629 -1.205905
vt -0.3977776 -1.723543
vt 2.329629 -1.205905
vt 0.3977776 -1.723543
vt -2.119398 -0.5865827
vt -0.2716384 -1.35195
vt 2.119398 -0.5865827
vt 0.2716384 -1.35195
vt -1.830127 0
vt -0.09807611 -1
vt 1.830127 0
vt 0.09807611 -1
vt -1.466767 0.543807
vt 0.11994 -0.6737157
vt 1.466767 0.543807
vt -0.11994 -0.6737157
vt -1.035534 1.035534
vt 0.3786798 -0.3786798
vt 1.035534 1.035534
vt -0.3786798 -0.3786798
vt -0.543807 1.466767
vt 0.6737156 -0.11994
vt 0.543807 1.466767
vt -0.6737156 -0.11994
vt 2.384186E-07 1.830127
vt 1 0.09807634
vt -1 0.09807634
vt 0.5865829 2.119398
vt 1.35195 0.2716384
vt -0.5865829 2.119398
vt -1.35195 0.2716384
vt 1.205904 2.329629
vt 1.723543 0.3977776
vt -1.205904 2.329629
vt -1.723543 0.3977776
vt 1.847369 2.457224
vt 2.108421 0.4743345
vt -1.847369 2.457224
vt -2.108421 0.4743345
vt 2.5 2.5
vt 2.5 0.5
vt -2.5 2.5
vt -2.5 0.5

vn -0.9978589 0.06540302 0
vn 0.9978589 -0.06540278 0
vn 0 -1 0
vn -0.9807853 0.1950907 0
vn 0.9807853 -0.1950905 0
vn -0.9469302 0.3214392 0
vn 0.9469299 -0.3214401 0
vn -0.8968726 0.4422891 0
vn 0.8968729 -0.4422885 0
vn -0.8314697 0.5555701 0
vn 0.8314697 -0.5555702 0
vn -0.7518399 0.6593456 0
vn 0.7518397 -0.659346 0
vn -0.6593456 0.7518399 0
vn 0.6593462 -0.7518395 0
vn -0.5555705 0.8314695 0
vn 0.5555704 -0.8314695 0
vn -0.4422885 0.8968729 0
vn 0.442288 -0.8968731 0
vn -0.3214394 0.9469302 0
vn 0.3214402 -0.9469299 0
vn -0.19509 0.9807854 0
vn 0.1950898 -0.9807854 0
vn -0.06540373 0.9978589 0
vn 0.06540339 -0.9978589 0
vn 1 0 0
vn 0 0 1
vn 0 0 -1

usemtl BallBonus
f 3/3/1 4/4/1 2/2/1 1/1/1
f 7/7/2 8/8/2 6/6/2 5/5/2
f 1/11/3 6/12/3 8/10/3 3/9/3
f 4/15/4 10/16/4 9/14/4 2/13/4
f 12/19/5 7/20/5 5/18/5 11/17/5
f 10/23/6 14/24/6 13/22/6 9/21/6
f 16/27/7 12/28/7 11/26/7 15/25/7
f 14/31/8 18/32/8 17/30/8 13/29/8
f 20/35/9 16/36/9 15/34/9 19/33/9
f 18/39/10 22/40/10 21/38/10 17/37/10
f 24/43/11 20/44/11 19/42/11 23/41/11
f 22/47/12 26/48/12 25/46/12 21/45/12
f 28/51/13 24/52/13 23/50/13 27/49/13
f 26/55/14 30/56/14 29/54/14 25/53/14
f 32/59/15 28/60/15 27/58/15 31/57/15
f 30/63/16 34/64/16 33/62/16 29/61/16
f 36/67/17 32/68/17 31/66/17 35/65/17
f 34/71/18 38/72/18 37/70/18 33/69/18
f 40/75/19 36/76/19 35/74/19 39/73/19
f 38/79/20 42/80/20 41/78/20 37/77/20
f 44/83/21 40/84/21 39/82/21 43/81/21
f 42/87/22 46/88/22 45/86/22 41/85/22
f 48/91/23 44/92/23 43/90/23 47/89/23
f 46/95/24 50/96/24 49/94/24 45/93/24
f 52/99/25 48/100/25 47/98/25 51/97/25
f 51/103/26 49/104/26 50/102/26 52/101/26
f 8/107/27 7/108/27 4/106/27 3/105/27
f 5/111/28 6/112/28 1/110/28 2/109/28
f 7/108/27 12/114/27 10/113/27 4/106/27
f 11/116/28 5/111/28 2/109/28 9/115/28
f 12/114/27 16/118/27 14/117/27 10/113/27
f 15/120/28 11/116/28 9/115/28 13/119/28
f 16/118/27 20/122/27 18/121/27 14/117/27
f 19/124/28 15/120/28 13/119/28 17/123/28
f 20/122/27 24/126/27 22/125/27 18/121/27
f 23/128/28 19/124/28 17/123/28 21/127/28
f 24/126/27 28/130/27 26/129/27 22/125/27
f 27/132/28 23/128/28 21/127/28 25/131/28
f 28/130/27 32/134/27 30/133/27 26/129/27
f 31/136/28 27/132/28 25/131/28 29/135/28
f 32/134/27 36/138/27 34/137/27 30/133/27
f 35/139/28 31/136/28 29/135/28 33/137/28
f 36/138/27 40/141/27 38/140/27 34/137/27
f 39/143/28 35/139/28 33/137/28 37/142/28
f 40/141/27 44/145/27 42/144/27 38/140/27
f 43/147/28 39/143/28 37/142/28 41/146/28
f 44/145/27 48/149/27 46/148/27 42/144/27
f 47/151/28 43/147/28 41/146/28 45/150/28
f 48/149/27 52/153/27 50/152/27 46/148/27
f 51/155/28 47/151/28 45/150/28 49/154/28

